<mxfile host="Electron" modified="2023-12-04T21:46:34.566Z" agent="Mozilla/5.0 (X11; Linux x86_64) AppleWebKit/537.36 (KHTML, like Gecko) draw.io/22.1.2 Chrome/114.0.5735.289 Electron/25.9.4 Safari/537.36" etag="NrGle2IWA8Ww_XI1w_tZ" version="22.1.2" type="device">
  <diagram id="C5RBs43oDa-KdzZeNtuy" name="Page-1">
    <mxGraphModel dx="724" dy="499" grid="1" gridSize="10" guides="1" tooltips="1" connect="1" arrows="1" fold="1" page="1" pageScale="1" pageWidth="827" pageHeight="1169" math="0" shadow="0">
      <root>
        <mxCell id="WIyWlLk6GJQsqaUBKTNV-0" />
        <mxCell id="WIyWlLk6GJQsqaUBKTNV-1" parent="WIyWlLk6GJQsqaUBKTNV-0" />
        <mxCell id="4vkHnMD6vThAb-knKIep-2" value="" style="edgeStyle=orthogonalEdgeStyle;rounded=0;orthogonalLoop=1;jettySize=auto;html=1;" edge="1" parent="WIyWlLk6GJQsqaUBKTNV-1" source="4vkHnMD6vThAb-knKIep-0" target="4vkHnMD6vThAb-knKIep-1">
          <mxGeometry relative="1" as="geometry" />
        </mxCell>
        <mxCell id="4vkHnMD6vThAb-knKIep-0" value="Начало" style="rounded=1;whiteSpace=wrap;html=1;" vertex="1" parent="WIyWlLk6GJQsqaUBKTNV-1">
          <mxGeometry x="139" y="20" width="120" height="60" as="geometry" />
        </mxCell>
        <mxCell id="4vkHnMD6vThAb-knKIep-4" value="" style="edgeStyle=orthogonalEdgeStyle;rounded=0;orthogonalLoop=1;jettySize=auto;html=1;" edge="1" parent="WIyWlLk6GJQsqaUBKTNV-1" source="4vkHnMD6vThAb-knKIep-1" target="4vkHnMD6vThAb-knKIep-3">
          <mxGeometry relative="1" as="geometry" />
        </mxCell>
        <mxCell id="4vkHnMD6vThAb-knKIep-1" value="&lt;div&gt;numbers = [1, 8, 3, 8, 2, 6, 8, 8]&lt;/div&gt;&lt;div&gt;index = 0&lt;/div&gt;&lt;div&gt;maximum = numbers[index]&lt;/div&gt;&lt;div&gt;count_maximal = 0&lt;/div&gt;" style="rounded=0;whiteSpace=wrap;html=1;" vertex="1" parent="WIyWlLk6GJQsqaUBKTNV-1">
          <mxGeometry x="91" y="120" width="216" height="80" as="geometry" />
        </mxCell>
        <mxCell id="4vkHnMD6vThAb-knKIep-10" value="yes" style="edgeStyle=orthogonalEdgeStyle;rounded=0;orthogonalLoop=1;jettySize=auto;html=1;" edge="1" parent="WIyWlLk6GJQsqaUBKTNV-1" source="4vkHnMD6vThAb-knKIep-3" target="4vkHnMD6vThAb-knKIep-9">
          <mxGeometry relative="1" as="geometry" />
        </mxCell>
        <mxCell id="4vkHnMD6vThAb-knKIep-3" value="index &amp;lt; numbers.length" style="rhombus;whiteSpace=wrap;html=1;" vertex="1" parent="WIyWlLk6GJQsqaUBKTNV-1">
          <mxGeometry x="122" y="240" width="154" height="130" as="geometry" />
        </mxCell>
        <mxCell id="4vkHnMD6vThAb-knKIep-14" value="yes" style="edgeStyle=orthogonalEdgeStyle;rounded=0;orthogonalLoop=1;jettySize=auto;html=1;" edge="1" parent="WIyWlLk6GJQsqaUBKTNV-1" source="4vkHnMD6vThAb-knKIep-9" target="4vkHnMD6vThAb-knKIep-11">
          <mxGeometry relative="1" as="geometry" />
        </mxCell>
        <mxCell id="4vkHnMD6vThAb-knKIep-18" value="no" style="edgeStyle=orthogonalEdgeStyle;rounded=0;orthogonalLoop=1;jettySize=auto;html=1;" edge="1" parent="WIyWlLk6GJQsqaUBKTNV-1" source="4vkHnMD6vThAb-knKIep-9" target="4vkHnMD6vThAb-knKIep-17">
          <mxGeometry relative="1" as="geometry" />
        </mxCell>
        <mxCell id="4vkHnMD6vThAb-knKIep-9" value="numbers[index] &amp;gt; maximum" style="rhombus;whiteSpace=wrap;html=1;" vertex="1" parent="WIyWlLk6GJQsqaUBKTNV-1">
          <mxGeometry x="113.5" y="430" width="171" height="135" as="geometry" />
        </mxCell>
        <mxCell id="4vkHnMD6vThAb-knKIep-22" value="" style="edgeStyle=orthogonalEdgeStyle;rounded=0;orthogonalLoop=1;jettySize=auto;html=1;" edge="1" parent="WIyWlLk6GJQsqaUBKTNV-1" source="4vkHnMD6vThAb-knKIep-11" target="4vkHnMD6vThAb-knKIep-21">
          <mxGeometry relative="1" as="geometry" />
        </mxCell>
        <mxCell id="4vkHnMD6vThAb-knKIep-11" value="&lt;div&gt;maximum = numbers[index]&lt;/div&gt;&lt;div&gt;&amp;nbsp; &amp;nbsp; &amp;nbsp; &amp;nbsp; count_maximal = 1&lt;/div&gt;" style="whiteSpace=wrap;html=1;" vertex="1" parent="WIyWlLk6GJQsqaUBKTNV-1">
          <mxGeometry x="106" y="610" width="186" height="50" as="geometry" />
        </mxCell>
        <mxCell id="4vkHnMD6vThAb-knKIep-20" value="yes" style="edgeStyle=orthogonalEdgeStyle;rounded=0;orthogonalLoop=1;jettySize=auto;html=1;" edge="1" parent="WIyWlLk6GJQsqaUBKTNV-1" source="4vkHnMD6vThAb-knKIep-17" target="4vkHnMD6vThAb-knKIep-19">
          <mxGeometry relative="1" as="geometry">
            <Array as="points">
              <mxPoint x="460" y="580" />
              <mxPoint x="460" y="580" />
            </Array>
          </mxGeometry>
        </mxCell>
        <mxCell id="4vkHnMD6vThAb-knKIep-17" value="numbers[index] == maximum" style="rhombus;whiteSpace=wrap;html=1;" vertex="1" parent="WIyWlLk6GJQsqaUBKTNV-1">
          <mxGeometry x="370" y="433.75" width="180" height="127.5" as="geometry" />
        </mxCell>
        <mxCell id="4vkHnMD6vThAb-knKIep-19" value="count_maximal = count_maximal + 1" style="rounded=0;whiteSpace=wrap;html=1;" vertex="1" parent="WIyWlLk6GJQsqaUBKTNV-1">
          <mxGeometry x="350" y="610" width="220" height="50" as="geometry" />
        </mxCell>
        <mxCell id="4vkHnMD6vThAb-knKIep-21" value="index = index + 1" style="rounded=0;whiteSpace=wrap;html=1;" vertex="1" parent="WIyWlLk6GJQsqaUBKTNV-1">
          <mxGeometry x="139" y="720" width="120" height="40" as="geometry" />
        </mxCell>
        <mxCell id="4vkHnMD6vThAb-knKIep-23" value="" style="endArrow=classic;html=1;rounded=0;exitX=0.5;exitY=1;exitDx=0;exitDy=0;" edge="1" parent="WIyWlLk6GJQsqaUBKTNV-1" source="4vkHnMD6vThAb-knKIep-19">
          <mxGeometry width="50" height="50" relative="1" as="geometry">
            <mxPoint x="380" y="670" as="sourcePoint" />
            <mxPoint x="200" y="700" as="targetPoint" />
            <Array as="points">
              <mxPoint x="460" y="700" />
            </Array>
          </mxGeometry>
        </mxCell>
        <mxCell id="4vkHnMD6vThAb-knKIep-25" value="no" style="endArrow=none;html=1;rounded=0;entryX=1;entryY=0.5;entryDx=0;entryDy=0;" edge="1" parent="WIyWlLk6GJQsqaUBKTNV-1" target="4vkHnMD6vThAb-knKIep-17">
          <mxGeometry width="50" height="50" relative="1" as="geometry">
            <mxPoint x="600" y="498" as="sourcePoint" />
            <mxPoint x="430" y="620" as="targetPoint" />
          </mxGeometry>
        </mxCell>
        <mxCell id="4vkHnMD6vThAb-knKIep-26" value="" style="endArrow=classic;html=1;rounded=0;" edge="1" parent="WIyWlLk6GJQsqaUBKTNV-1">
          <mxGeometry width="50" height="50" relative="1" as="geometry">
            <mxPoint x="600" y="500" as="sourcePoint" />
            <mxPoint x="460" y="700" as="targetPoint" />
            <Array as="points">
              <mxPoint x="600" y="700" />
            </Array>
          </mxGeometry>
        </mxCell>
        <mxCell id="4vkHnMD6vThAb-knKIep-27" value="" style="endArrow=classic;html=1;rounded=0;exitX=0;exitY=0.5;exitDx=0;exitDy=0;entryX=0;entryY=0.5;entryDx=0;entryDy=0;" edge="1" parent="WIyWlLk6GJQsqaUBKTNV-1" source="4vkHnMD6vThAb-knKIep-21" target="4vkHnMD6vThAb-knKIep-3">
          <mxGeometry width="50" height="50" relative="1" as="geometry">
            <mxPoint x="380" y="670" as="sourcePoint" />
            <mxPoint x="80" y="440" as="targetPoint" />
            <Array as="points">
              <mxPoint x="80" y="740" />
              <mxPoint x="80" y="305" />
            </Array>
          </mxGeometry>
        </mxCell>
        <mxCell id="4vkHnMD6vThAb-knKIep-31" value="" style="edgeStyle=orthogonalEdgeStyle;rounded=0;orthogonalLoop=1;jettySize=auto;html=1;" edge="1" parent="WIyWlLk6GJQsqaUBKTNV-1" source="4vkHnMD6vThAb-knKIep-28" target="4vkHnMD6vThAb-knKIep-30">
          <mxGeometry relative="1" as="geometry" />
        </mxCell>
        <mxCell id="4vkHnMD6vThAb-knKIep-28" value="print(count_maximal)" style="shape=document;whiteSpace=wrap;html=1;boundedLbl=1;" vertex="1" parent="WIyWlLk6GJQsqaUBKTNV-1">
          <mxGeometry x="400" y="265" width="120" height="80" as="geometry" />
        </mxCell>
        <mxCell id="4vkHnMD6vThAb-knKIep-29" value="" style="endArrow=classic;html=1;rounded=0;exitX=1;exitY=0.5;exitDx=0;exitDy=0;entryX=0;entryY=0.5;entryDx=0;entryDy=0;" edge="1" parent="WIyWlLk6GJQsqaUBKTNV-1" source="4vkHnMD6vThAb-knKIep-3" target="4vkHnMD6vThAb-knKIep-28">
          <mxGeometry width="50" height="50" relative="1" as="geometry">
            <mxPoint x="380" y="460" as="sourcePoint" />
            <mxPoint x="430" y="410" as="targetPoint" />
          </mxGeometry>
        </mxCell>
        <mxCell id="4vkHnMD6vThAb-knKIep-30" value="Конец" style="rounded=1;whiteSpace=wrap;html=1;" vertex="1" parent="WIyWlLk6GJQsqaUBKTNV-1">
          <mxGeometry x="580" y="275" width="120" height="60" as="geometry" />
        </mxCell>
      </root>
    </mxGraphModel>
  </diagram>
</mxfile>
